<svg width="20" height="21" viewBox="0 0 20 21" fill="none" xmlns="http://www.w3.org/2000/svg">
<path d="M19.722 17.1308L16.9022 19.928C16.486 20.3549 15.9342 20.4995 15.3969 20.5001C13.0207 20.429 10.7747 19.2617 8.93058 18.0632C5.90355 15.8611 3.12611 13.1305 1.38295 9.83068C0.714381 8.44697 -0.0700857 6.68145 0.00486426 5.13697C0.0115476 4.55597 0.168114 3.98575 0.577298 3.61125L3.39706 0.7929C3.9826 0.29485 4.54885 0.46705 4.92355 1.04718L7.19206 5.34888C7.43083 5.8585 7.29386 6.40453 6.93763 6.76868L5.89876 7.80702C5.83463 7.89487 5.7938 7.99487 5.79276 8.1037C6.19113 9.64573 7.39798 11.067 8.46411 12.0451C9.53023 13.0233 10.6762 14.3484 12.1637 14.6621C12.3476 14.7134 12.5728 14.7315 12.7044 14.6092L13.9129 13.3801C14.3295 13.0644 14.931 12.91 15.3757 13.1682H15.3969L19.4887 15.5839C20.0894 15.9605 20.1521 16.6881 19.722 17.1308Z" fill="#232323"/>
</svg>
